<?xml version="1.0" encoding="UTF-8" standalone="no"?>
<!-- Created with Inkscape (http://www.inkscape.org/) -->

<svg
   xmlns:dc="http://purl.org/dc/elements/1.1/"
   xmlns:cc="http://creativecommons.org/ns#"
   xmlns:rdf="http://www.w3.org/1999/02/22-rdf-syntax-ns#"
   xmlns:svg="http://www.w3.org/2000/svg"
   xmlns="http://www.w3.org/2000/svg"
   xmlns:sodipodi="http://sodipodi.sourceforge.net/DTD/sodipodi-0.dtd"
   xmlns:inkscape="http://www.inkscape.org/namespaces/inkscape"
   width="134.74568mm"
   height="79.465401mm"
   viewBox="0 0 477.44533 281.57032"
   id="svg4390"
   version="1.1"
   inkscape:version="0.91 r13725"
   sodipodi:docname="logo.svg">
  <defs
     id="defs4392" />
  <sodipodi:namedview
     id="base"
     pagecolor="#ffffff"
     bordercolor="#666666"
     borderopacity="1.0"
     inkscape:pageopacity="0.0"
     inkscape:pageshadow="2"
     inkscape:zoom="1.979899"
     inkscape:cx="50.529635"
     inkscape:cy="98.947329"
     inkscape:document-units="px"
     inkscape:current-layer="layer1"
     showgrid="false"
     fit-margin-top="0"
     fit-margin-left="0"
     fit-margin-right="0"
     fit-margin-bottom="0"
     inkscape:window-width="1920"
     inkscape:window-height="1023"
     inkscape:window-x="0"
     inkscape:window-y="0"
     inkscape:window-maximized="1" />
  <metadata
     id="metadata4395">
    <rdf:RDF>
      <cc:Work
         rdf:about="">
        <dc:format>image/svg+xml</dc:format>
        <dc:type
           rdf:resource="http://purl.org/dc/dcmitype/StillImage" />
        <dc:title></dc:title>
      </cc:Work>
    </rdf:RDF>
  </metadata>
  <g
     inkscape:label="Layer 1"
     inkscape:groupmode="layer"
     id="layer1"
     transform="translate(-49.848767,-203.00562)">
    <path
       inkscape:connector-curvature="0"
       style="fill:#000066;fill-opacity:1;fill-rule:nonzero;stroke:none"
       d="m 327.19056,271.8357 c -3.88249,0 -6.59312,0.85625 -8.39062,2.15624 -2.21625,1.56875 -3.08203,3.79891 -3.08203,5.81641 0,4.145 3.50008,6.83813 6.20508,8.92188 1.90125,1.4825 3.42773,2.68054 3.42773,4.09179 0,1.95625 -2.73414,1.95508 -3.93164,1.95508 -1.355,0 -2.95016,-0.3257 -4.50391,-0.7832 -1.1725,-0.32375 -2.33351,-0.71438 -3.32226,-1.07813 l 0.6875,7.78907 c 1.38125,0.20125 2.93562,0.43484 4.48437,0.62109 1.7275,0.19875 3.4743,0.33594 4.99805,0.33594 4.11125,0 6.92859,-0.92766 8.77734,-2.31641 2.31875,-1.7325 3.15821,-4.19 3.15821,-6.4375 0,-3.49 -3.36774,-6.07211 -6.05274,-8.09961 -1.96125,-1.49 -3.58984,-2.73148 -3.58984,-4.08398 0,-1.045 0.79492,-1.54743 1.73242,-1.79493 0.77375,-0.18625 1.61524,-0.21093 2.08399,-0.21093 1.1,0 2.2264,0.14343 3.3164,0.39843 0.89625,0.21126 1.75578,0.46915 2.58203,0.7754 l -0.55078,-7.22657 c -1.28375,-0.26 -2.60789,-0.46382 -3.93164,-0.61133 -1.36125,-0.14749 -2.72765,-0.21874 -4.09766,-0.21874 z m -201.59374,0.69335 c -0.1325,5.11625 -0.43118,9.53883 -0.70118,13.23633 -0.235,3.185 -0.41797,5.83844 -0.41797,7.89844 0,2.20125 1.02852,4.4032 3.69727,5.93945 2.2825,1.33375 5.75797,2.18946 10.76172,2.18946 6.995,0 10.82055,-1.75375 12.9043,-3.90625 2.05375,-2.09875 2.41554,-4.56844 2.43554,-6.11719 0.1275,-5.6425 0.93774,-16.44274 1.14649,-19.24024 l -10.45508,0 c -0.0925,3.6275 -0.33625,12.14594 -1.21875,17.64844 -0.23875,1.48875 -0.59938,2.54156 -1.32813,3.25781 -0.72875,0.73625 -1.7782,1.05469 -3.4082,1.05469 -1.56875,0 -2.6443,-0.62398 -3.31055,-1.67773 -0.6325,-0.99125 -0.87695,-2.33977 -0.87695,-3.85352 0,-2.87375 0.28031,-6.55015 0.57031,-10.28515 0.1625,-2.08375 0.33086,-4.19204 0.44336,-6.14454 l -10.24218,0 z m 35.26171,0 c 0,4.48125 -0.1775,9.36008 -0.4375,13.95508 -0.32625,5.97875 -0.77007,11.41641 -1.11132,14.72266 l 9.16601,0 c 0.0513,-5.385 0.27094,-9.64391 0.39844,-12.69141 0.0612,-1.2525 0.10633,-2.28117 0.14258,-3.07617 l 0.01,-0.57617 0.0156,-1.54492 c 1.055,1.65375 1.83492,3.35218 2.66992,5.11718 1.6,3.42875 3.40195,6.9093 5.18945,10.37305 0.3675,0.68875 0.71891,1.34719 1.25391,2.39844 l 12.55859,0 c 0.1175,-4.80375 0.33805,-9.5861 0.62305,-14.37109 0.28625,-4.73501 0.64695,-9.50665 1.06445,-14.30665 l -9.48242,0 c -0.03,2.60875 -0.0911,5.19165 -0.18359,7.74415 -0.10625,2.88249 -0.24313,5.70367 -0.42188,8.45117 l -0.0469,0.57617 -0.0801,1.71875 c -0.785,-1.4575 -1.47852,-2.94828 -2.16602,-4.45703 -0.9025,-2.035 -1.83937,-4.07258 -2.79687,-6.11133 -1.2425,-2.62125 -2.5168,-5.27688 -3.8418,-7.92188 l -12.52344,0 z m 36.91797,0 c -0.0213,10.70875 -0.52906,18.13954 -1.03906,25.26954 -0.0813,1.15625 -0.1625,2.2964 -0.25,3.41015 l 10.86719,0 c 0.0213,-12.7475 0.52601,-19.42219 1.22851,-28.67969 l -10.80664,0 z m 14.56641,0 c 0.6525,1.8825 1.39016,4.0154 2.12891,6.11915 2.61875,7.50749 5.22414,15.01804 7.58789,22.56054 l 12.05859,0 14.24609,-28.67969 -10.5625,0 c -1.17125,3.0925 -2.50593,6.11938 -3.83593,9.14063 -1.39,3.19375 -2.81266,6.36797 -4.00391,9.63672 -0.3725,0.97 -0.76047,1.94336 -1.16797,2.91211 -0.285,-0.9375 -0.52992,-1.85078 -0.76367,-2.80078 -0.81,-3.43625 -1.81484,-6.89118 -2.80859,-10.35743 -0.83,-2.8225 -1.66469,-5.665 -2.36719,-8.53125 l -10.51172,0 z m 39.74414,0 c 0.0412,3.685 -0.17766,9.09352 -0.47266,14.38477 -0.32625,5.6775 -0.77,11.20742 -1.15625,14.29492 l 24.88672,0 0.46875,-6.99023 c -1.8025,0.0937 -3.48922,0.18789 -5.51172,0.24414 -2.2825,0.0738 -4.94086,0.12109 -8.56836,0.12109 l -0.64843,0 0.0508,-0.64453 0.21875,-3.18555 0.0371,-0.57031 0.56054,0 11.3711,0 0.39648,-6.79687 c -0.72375,0.0162 -1.46758,0.0487 -2.23633,0.0762 -1.51375,0.0462 -3.01125,0.10156 -4.4375,0.10156 l -4.52929,0 -0.63086,0 0.0449,-0.6543 0.21875,-3.18164 0.0352,-0.5664 0.55078,0 6.09375,0 c 1.31,0 2.68507,0.0171 4.14258,0.0371 1.1925,0.035 2.3739,0.0601 3.5664,0.1289 l 0.36133,-6.79883 -24.8125,0 z m 30.39648,0 c 0,4.79875 -0.0655,9.58321 -0.27929,14.40821 -0.20875,4.76375 -0.57672,9.52773 -1.13672,14.27148 l 9.96484,0 c 0.0462,-3.5 0.12774,-7.02234 0.24024,-10.52734 0.1325,-3.745 0.29406,-7.46828 0.53906,-11.17578 l 0.043,-0.56836 0.54883,0 2.65429,0 0.11719,0 c 2.5525,0 5.31445,8.6e-4 5.31445,2.94336 0,1.3325 -0.59617,2.23328 -1.48242,2.83203 -1.06,0.72625 -2.54266,0.96094 -3.81641,0.96094 -0.33124,0 -0.66351,-0.0249 -1.00976,-0.0449 l -0.0703,-0.0176 c 0.6675,2.4975 1.3,5.015 1.90625,7.5625 0.64625,2.685 1.2414,5.35265 1.84765,8.03515 l 10.71094,0 c -0.42875,-1.2075 -0.86117,-2.42508 -1.29492,-3.64258 -0.9825,-2.7775 -1.98141,-5.54968 -2.84766,-8.39843 l -0.14843,-0.49805 0.46484,-0.20898 c 1.82875,-0.83 3.23375,-1.92055 4.15625,-3.31055 0.88625,-1.35125 1.3457,-2.97735 1.3457,-4.9336 0,-3.59625 -1.75187,-5.50211 -3.95312,-6.50585 -2.2825,-1.05376 -5.03414,-1.18165 -6.83789,-1.18165 l -16.97657,0 z m 59.85938,0 c -0.025,10.71 -0.54445,18.14266 -1.0332,25.28516 -0.0712,1.14125 -0.17485,2.28828 -0.2461,3.39453 l 10.70117,0 c 0.01,-12.7475 0.51282,-19.42219 1.22657,-28.67969 l -10.64844,0 z m 16.44141,0 c -0.0113,7.9375 -0.21891,13.99516 -0.50391,18.69141 -0.265,4.4025 -0.57031,7.58633 -0.82031,9.98633 l 16.27148,0 c 4.37625,0 7.86625,-1.53149 10.28125,-4.14649 2.5075,-2.735 3.87891,-6.6589 3.87891,-11.28515 0,-4.23875 -1.13157,-7.54774 -3.16407,-9.77149 -2.06375,-2.2725 -5.095,-3.47461 -8.875,-3.47461 l -17.06835,0 z m 43.04101,0 c -1.78875,3.82625 -4.40203,8.96641 -7.08203,14.06641 -2.93375,5.59375 -5.93063,11.08633 -7.98438,14.61133 l 11.13868,0 2.87304,-6.54297 0.16797,-0.35156 0.38672,0 10.42969,0 0.4082,0 0.14258,0.39844 0,0.01 0.01,0.002 c 0.73875,2.155 1.48758,4.28438 2.04883,6.48438 l 10.73438,0 c -1.78375,-4.5925 -3.51578,-9.23547 -5.20703,-13.91797 -1.78375,-4.90625 -3.51578,-9.82227 -5.17578,-14.75977 l -12.89063,0 z m 27.54297,0 c -0.0213,7.9375 -0.22,13.99516 -0.5,18.69141 -0.28,4.4025 -0.595,7.58633 -0.84375,9.98633 l 16.29101,0 c 4.3775,0 7.85696,-1.53149 10.28321,-4.14649 2.50125,-2.735 3.86523,-6.6589 3.86523,-11.28515 0,-4.23875 -1.12047,-7.54774 -3.16797,-9.77149 -2.05875,-2.2725 -5.09047,-3.47461 -8.85547,-3.47461 l -17.07226,0 z m -21.53711,5.72071 2.87891,9.66015 -7.14258,0 4.26367,-9.66015 z m -36.7793,0.91211 c 2.19125,0 3.80649,0.58758 4.89649,1.73633 1.085,1.14624 1.5957,2.80882 1.5957,5.01757 0,3.43125 -0.88133,5.5975 -2.26758,6.90625 -1.39,1.325 -3.27656,1.76368 -5.28906,1.76368 -0.29,0 -0.62164,-0.0163 -0.93164,-0.0488 -0.29625,-0.0125 -0.59172,-0.0462 -0.91797,-0.10743 l -0.52344,-0.0703 0.0195,-0.53906 0.6211,-13.89844 0.0215,-0.48437 0.47266,-0.0762 c 0.3925,-0.0713 0.775,-0.11211 1.15625,-0.16211 0.3825,-0.0213 0.76523,-0.0371 1.14648,-0.0371 z m 70.57422,0 c 2.19625,0 3.81695,0.58758 4.90821,1.73633 1.07375,1.14624 1.59374,2.80882 1.59374,5.01757 0,3.43125 -0.88242,5.5975 -2.26367,6.90625 -1.41125,1.335 -3.27851,1.76367 -5.29101,1.76368 -0.30625,0 -0.6275,-0.0163 -0.9375,-0.0488 -0.29125,-0.0125 -0.59258,-0.0462 -0.92383,-0.10743 l -0.51367,-0.0703 0.0195,-0.53906 0.62109,-13.89844 0.0156,-0.48437 0.46875,-0.0762 c 0.3875,-0.0713 0.76851,-0.11211 1.16601,-0.16211 0.3875,-0.0213 0.75547,-0.0371 1.13672,-0.0371 z M 123.6476,315.82202 c 0.3975,22.48625 -0.74914,46.58008 -4.02539,68.83008 l 62.55468,0 0.94727,-18.97656 c -11.815,0.62375 -23.57906,0.92773 -35.41406,0.92773 l 0.5039,-7.32812 28.0918,0 1.11719,-18.53321 c -9.29375,0.155 -18.55688,0 -27.85938,0 l 0.51367,-6.85546 14.30274,0 c 6.5325,0 13.80234,0.10172 20.30859,0.41796 l 0.9375,-18.48242 -61.97851,0 z m 98.17187,0 c -9.105,19.18875 -28.17476,54.08258 -36.97851,68.83008 l 29.51367,0 8.14258,-18.08594 22.79882,0 c 2.09375,5.96 4.305,11.95469 5.84375,18.08594 l 28.37305,0 c -9.0125,-22.685 -17.49086,-45.70758 -25.47461,-68.83008 l -32.21875,0 z m 65.13672,0 c 0.31625,17.65125 -2.15539,56.15133 -4.02539,68.83008 l 28.49219,0 c 0.0612,-8.4575 0.33632,-16.93945 0.61133,-25.37695 l 28.30078,0 1.14062,-18.53321 c -9.2975,0.155 -19.30781,0 -28.60156,0 l 0.50586,-6.85546 14.31445,0 c 6.51625,0 13.7982,0.10172 20.31445,0.41796 l 0.93164,-18.48242 -61.98437,0 z m 66.47852,0 c 0,30.13 -1.76805,49.02633 -3.12305,68.83008 l 28.0918,0 c 0,-30.95625 1.23859,-46.42633 2.99609,-68.83008 l -27.96484,0 z m 32.08789,0 -0.94922,18.69141 c 3.41375,-0.20875 6.48125,-0.62695 22.4375,-0.62695 -0.10625,17.13375 -1.13407,33.95687 -3.10156,50.76562 l 27.43554,0 c 0.305,-21.14875 1.04367,-36.00562 2.38867,-50.76562 9.635,0 16.24383,0.20695 22.45508,0.62695 l 0.92774,-18.69141 -71.59375,0 z m -148.89258,18.58985 4.79492,15.82617 -12.01953,0 7.22461,-15.82617 z m 209.75,45.16015 0,0.0156 c -2.96,0 -5.64016,1.19242 -7.56641,3.13867 l -0.0195,0 c -1.93125,1.925 -3.13867,4.62125 -3.13867,7.59375 l 0,0.008 c 0,2.955 1.20742,5.63492 3.13867,7.57617 1.94125,1.93625 4.62594,3.15235 7.58594,3.15235 l 0.0254,0 c 2.97,-0.015 5.62492,-1.2161 7.57617,-3.15235 1.93125,-1.94125 3.13281,-4.62148 3.13281,-7.58398 l 0,-0.0234 c 0,-2.95 -1.20156,-5.64531 -3.13281,-7.57031 -1.95125,-1.93625 -4.63094,-3.13867 -7.58594,-3.13867 l 0,-0.0156 -0.0156,0 z m 0,1.6543 0.0156,0 c 2.50125,0 4.77867,1.02656 6.41992,2.66406 1.65001,1.63875 2.66407,3.915 2.66407,6.40625 l -0.0156,0 0,0.0234 0.0156,0 c 0,2.50375 -1.01406,4.77648 -2.66407,6.42773 -1.64125,1.625 -3.9189,2.65235 -6.41015,2.65235 l 0,-0.006 -0.0254,0 0,0.006 c -2.49125,0 -4.76281,-1.02899 -6.41406,-2.67774 -1.64,-1.6275 -2.66407,-3.89828 -2.66407,-6.39453 l 0.01,0 0,-0.008 -0.01,0 c 0,-2.51375 1.02407,-4.79094 2.66407,-6.42969 1.65125,-1.6375 3.92281,-2.66406 6.41406,-2.66406 z m -4.26367,3.38086 0,11.44726 1.51757,0 0,-5.08007 1.75391,0 c 0.3925,0 0.66734,0.01 0.83984,0.0449 0.245,0.0712 0.46813,0.16539 0.70313,0.30664 0.21375,0.15 0.47867,0.39742 0.76367,0.76367 0.29,0.35875 0.65235,0.88469 1.08985,1.58594 l 1.50976,2.3789 1.9082,0 -1.99609,-3.12304 c -0.3875,-0.59875 -0.81141,-1.11399 -1.25391,-1.52149 -0.20375,-0.17875 -0.49961,-0.3757 -0.91211,-0.56445 1.10125,-0.1625 1.9175,-0.5025 2.4375,-1.0625 0.51875,-0.57375 0.78711,-1.24445 0.78711,-2.06445 0,-0.6325 -0.14664,-1.2018 -0.46289,-1.7168 -0.33625,-0.53 -0.7482,-0.88859 -1.2832,-1.08984 -0.53,-0.21125 -1.31461,-0.30469 -2.31836,-0.30469 l -5.08398,0 z m 1.51757,1.25391 3.62305,0 c 0.85,0 1.46188,0.18195 1.85938,0.5332 0.3975,0.35125 0.58593,0.79672 0.58593,1.32422 0,0.3775 -0.0866,0.72875 -0.30664,1.03125 -0.1925,0.31375 -0.49922,0.5382 -0.88672,0.68945 -0.38125,0.155 -0.92015,0.21094 -1.6289,0.21094 l -3.2461,0 0,-3.78906 z m -157.79687,13.17773 c -58.58625,0.6325 -115.43055,4.45625 -166.93555,10.96875 l -0.22265,5.73828 c 55.4225,-7.04875 111.2832,-10.81672 167.1582,-11.41797 58.53,0.62375 115.50953,4.78172 166.76953,11.41797 l 0.25977,-5.73828 c -51.52,-6.5125 -108.44305,-10.33625 -167.0293,-10.96875 z"
       id="path54" />
  </g>
</svg>
